<mxfile host="Electron" modified="2023-10-04T13:15:16.951Z" agent="Mozilla/5.0 (Windows NT 10.0; Win64; x64) AppleWebKit/537.36 (KHTML, like Gecko) draw.io/21.6.1 Chrome/112.0.5615.204 Electron/24.6.1 Safari/537.36" etag="AsVuBvIfaVOJKu6F3QvP" version="21.6.1" type="device">
  <diagram name="第 1 页" id="dkh8Fpk8ysX2jSiFYTaP">
    <mxGraphModel dx="470" dy="277" grid="0" gridSize="10" guides="1" tooltips="1" connect="1" arrows="1" fold="1" page="1" pageScale="1" pageWidth="500" pageHeight="500" math="0" shadow="0">
      <root>
        <mxCell id="0" />
        <mxCell id="1" parent="0" />
        <mxCell id="DKMQZ5a9Bk96yGzmzJ4y-8" value="" style="endArrow=none;html=1;rounded=0;" parent="1" edge="1">
          <mxGeometry width="50" height="50" relative="1" as="geometry">
            <mxPoint x="279" y="304" as="sourcePoint" />
            <mxPoint x="271" y="236" as="targetPoint" />
          </mxGeometry>
        </mxCell>
        <mxCell id="DKMQZ5a9Bk96yGzmzJ4y-7" value="" style="endArrow=none;html=1;rounded=0;" parent="1" edge="1">
          <mxGeometry width="50" height="50" relative="1" as="geometry">
            <mxPoint x="217" y="304" as="sourcePoint" />
            <mxPoint x="229" y="236" as="targetPoint" />
          </mxGeometry>
        </mxCell>
        <mxCell id="DKMQZ5a9Bk96yGzmzJ4y-1" value="" style="shape=parallelogram;perimeter=parallelogramPerimeter;whiteSpace=wrap;html=1;fixedSize=1;" parent="1" vertex="1">
          <mxGeometry x="82" y="253" width="312" height="20" as="geometry" />
        </mxCell>
        <mxCell id="DKMQZ5a9Bk96yGzmzJ4y-2" value="" style="rounded=0;whiteSpace=wrap;html=1;movable=0;resizable=0;rotatable=0;deletable=0;editable=0;locked=1;connectable=0;" parent="1" vertex="1">
          <mxGeometry x="82" y="273" width="292" height="5" as="geometry" />
        </mxCell>
        <mxCell id="DKMQZ5a9Bk96yGzmzJ4y-4" value="" style="endArrow=none;html=1;rounded=0;" parent="1" edge="1">
          <mxGeometry width="50" height="50" relative="1" as="geometry">
            <mxPoint x="374" y="278" as="sourcePoint" />
            <mxPoint x="394" y="258" as="targetPoint" />
          </mxGeometry>
        </mxCell>
        <mxCell id="DKMQZ5a9Bk96yGzmzJ4y-5" value="" style="endArrow=none;html=1;rounded=0;" parent="1" edge="1">
          <mxGeometry width="50" height="50" relative="1" as="geometry">
            <mxPoint x="394" y="258" as="sourcePoint" />
            <mxPoint x="394" y="253" as="targetPoint" />
          </mxGeometry>
        </mxCell>
        <mxCell id="DKMQZ5a9Bk96yGzmzJ4y-6" value="" style="rounded=0;whiteSpace=wrap;html=1;" parent="1" vertex="1">
          <mxGeometry x="194" y="152" width="112" height="84" as="geometry" />
        </mxCell>
        <mxCell id="DKMQZ5a9Bk96yGzmzJ4y-9" value="" style="rounded=0;whiteSpace=wrap;html=1;" parent="1" vertex="1">
          <mxGeometry x="187" y="265" width="27" height="5" as="geometry" />
        </mxCell>
        <mxCell id="DKMQZ5a9Bk96yGzmzJ4y-12" value="" style="endArrow=none;html=1;rounded=0;" parent="1" edge="1">
          <mxGeometry width="50" height="50" relative="1" as="geometry">
            <mxPoint x="187" y="265" as="sourcePoint" />
            <mxPoint x="195" y="259" as="targetPoint" />
          </mxGeometry>
        </mxCell>
        <mxCell id="DKMQZ5a9Bk96yGzmzJ4y-14" value="" style="endArrow=none;html=1;rounded=0;" parent="1" edge="1">
          <mxGeometry width="50" height="50" relative="1" as="geometry">
            <mxPoint x="195" y="259" as="sourcePoint" />
            <mxPoint x="219" y="259" as="targetPoint" />
          </mxGeometry>
        </mxCell>
        <mxCell id="C9mZjHa6P3r_yQPMme5s-1" value="" style="endArrow=none;html=1;rounded=0;" edge="1" parent="1">
          <mxGeometry width="50" height="50" relative="1" as="geometry">
            <mxPoint x="214" y="265" as="sourcePoint" />
            <mxPoint x="219" y="259" as="targetPoint" />
          </mxGeometry>
        </mxCell>
        <mxCell id="C9mZjHa6P3r_yQPMme5s-2" value="" style="endArrow=none;html=1;rounded=0;" edge="1" parent="1">
          <mxGeometry width="50" height="50" relative="1" as="geometry">
            <mxPoint x="214" y="270" as="sourcePoint" />
            <mxPoint x="219" y="259.17857142857144" as="targetPoint" />
            <Array as="points">
              <mxPoint x="219" y="264" />
            </Array>
          </mxGeometry>
        </mxCell>
        <mxCell id="C9mZjHa6P3r_yQPMme5s-3" value="" style="endArrow=none;html=1;rounded=0;" edge="1" parent="1">
          <mxGeometry width="50" height="50" relative="1" as="geometry">
            <mxPoint x="196" y="263" as="sourcePoint" />
            <mxPoint x="196" y="257" as="targetPoint" />
          </mxGeometry>
        </mxCell>
        <mxCell id="C9mZjHa6P3r_yQPMme5s-4" value="" style="endArrow=none;html=1;rounded=0;" edge="1" parent="1" source="C9mZjHa6P3r_yQPMme5s-5">
          <mxGeometry width="50" height="50" relative="1" as="geometry">
            <mxPoint x="198" y="263" as="sourcePoint" />
            <mxPoint x="198" y="257" as="targetPoint" />
          </mxGeometry>
        </mxCell>
        <mxCell id="C9mZjHa6P3r_yQPMme5s-6" value="" style="endArrow=none;html=1;rounded=0;entryX=0.579;entryY=1.013;entryDx=0;entryDy=0;entryPerimeter=0;" edge="1" parent="1" target="C9mZjHa6P3r_yQPMme5s-5">
          <mxGeometry width="50" height="50" relative="1" as="geometry">
            <mxPoint x="197" y="263" as="sourcePoint" />
            <mxPoint x="198" y="257" as="targetPoint" />
          </mxGeometry>
        </mxCell>
        <mxCell id="C9mZjHa6P3r_yQPMme5s-5" value="" style="rounded=1;whiteSpace=wrap;html=1;" vertex="1" parent="1">
          <mxGeometry x="194" y="255" width="6.29" height="4" as="geometry" />
        </mxCell>
      </root>
    </mxGraphModel>
  </diagram>
</mxfile>
